<svg xmlns="http://www.w3.org/2000/svg" xmlns:xlink="http://www.w3.org/1999/xlink" width="698" height="553" viewBox="0 0 698 553">
  <defs>
    <clipPath id="clip-How-it-works-section">
      <rect width="698" height="553"/>
    </clipPath>
  </defs>
  <g id="How-it-works-section" clip-path="url(#clip-How-it-works-section)">
    <g id="undraw_Online_shopping_re_k1sv" transform="translate(20.399 22.208)">
      <path id="Path_801" data-name="Path 801" d="M205.3,722.291c20.485,14.757,47.032,15.5,72.692,13.685,3.583-.253,7.141-.549,10.666-.87.021-.006.049,0,.071-.009.169-.016.339-.032.5-.042l2.176-.2-.17.325-.534,1.008c.192-.337.384-.668.576-1.005.057-.1.12-.2.176-.3,6.647-11.568,13.241-23.56,14.922-36.77,1.738-13.71-3.147-29.235-15.214-35.974a24.357,24.357,0,0,0-5-2.093c-.722-.219-1.453-.4-2.193-.555a26.1,26.1,0,0,0-30.352,33.928c-10.23-10.49-8.322-27.508-4.793-41.731s7.816-30.049.625-42.823c-4-7.11-11.028-11.522-18.917-13.3-.242-.052-.484-.1-.726-.149a38.09,38.09,0,0,0-27.365,4.795c-15.086,9.506-22.834,27.531-25.348,45.187C173.043,673.8,182.009,705.51,205.3,722.291Z" transform="translate(-176.154 -228.214)" fill="#f2f2f2"/>
      <path id="Path_802" data-name="Path 802" d="M222.127,676.96a64.751,64.751,0,0,0,4.469,18.247,56.224,56.224,0,0,0,8.73,14.259A72.035,72.035,0,0,0,263,729.417a103.679,103.679,0,0,0,25.21,6.774c3.583-.253,7.141-.549,10.666-.87.021-.006.049,0,.071-.009.169-.016.339-.032.5-.042l2.176-.2-.17.325-.534,1.008c.192-.337.384-.668.576-1.005.056-.1.12-.2.176-.3a56.8,56.8,0,0,1-5.288-74.836c-.722-.219-1.453-.4-2.193-.555a59.927,59.927,0,0,0-5.467,9.054,58.721,58.721,0,0,0-5.066,36.531,60.036,60.036,0,0,0,15.211,29.945c-.684-.048-1.375-.1-2.052-.166-12.809-1.085-25.592-3.839-37.21-9.479a67.017,67.017,0,0,1-25.105-20.6c-7.036-9.7-10.137-21.376-10.669-33.239a140.276,140.276,0,0,1,3.982-37.976A159.4,159.4,0,0,1,241.2,597.286a1.146,1.146,0,0,0-.455-1.513.975.975,0,0,0-.726-.149.849.849,0,0,0-.56.48c-.732,1.429-1.451,2.859-2.142,4.306A161.205,161.205,0,0,0,224.7,638.26C222.154,650.889,220.8,664.1,222.127,676.96Z" transform="translate(-186.368 -228.429)" fill="#fff"/>
      <path id="Path_803" data-name="Path 803" d="M904.827,559.258H566.03a13.2,13.2,0,0,1-13.18-13.18V135.18A13.2,13.2,0,0,1,566.03,122h338.8a13.2,13.2,0,0,1,13.18,13.18v410.9a13.2,13.2,0,0,1-13.18,13.18ZM566.03,123.551A11.642,11.642,0,0,0,554.4,135.18v410.9a11.642,11.642,0,0,0,11.629,11.629h338.8a11.642,11.642,0,0,0,11.629-11.629V135.18a11.642,11.642,0,0,0-11.629-11.629Z" transform="translate(-260.805 -122)" fill="#f2f2f2"/>
      <rect id="Rectangle_801" data-name="Rectangle 801" width="363.607" height="1.551" transform="translate(292.818 32.244)" fill="#f2f2f2"/>
      <circle id="Ellipse_58" data-name="Ellipse 58" cx="6.202" cy="6.202" r="6.202" transform="translate(304.447 10.854)" fill="#fff" stroke="#f2f2f2" stroke-width="1"/>
      <circle id="Ellipse_59" data-name="Ellipse 59" cx="6.202" cy="6.202" r="6.202" transform="translate(323.829 10.854)" fill="#fff" stroke="#f2f2f2" stroke-width="1"/>
      <circle id="Ellipse_60" data-name="Ellipse 60" cx="6.202" cy="6.202" r="6.202" transform="translate(343.211 10.854)" fill="#fff" stroke="#f2f2f2" stroke-width="1"/>
      <path id="Path_804" data-name="Path 804" d="M866.072,237.157H624.185a10.079,10.079,0,0,1,0-20.157H866.072a10.079,10.079,0,1,1,0,20.157ZM624.185,218.551a8.528,8.528,0,0,0,0,17.056H866.072a8.528,8.528,0,0,0,0-17.056Z" transform="translate(-274.57 -143.348)" fill="#f2f2f2"/>
      <path id="Path_805" data-name="Path 805" d="M712.385,395.663H617.026a13.2,13.2,0,0,1-13.18-13.18v-78.3A13.2,13.2,0,0,1,617.026,291h95.359a13.2,13.2,0,0,1,13.18,13.18v78.3a13.2,13.2,0,0,1-13.18,13.18ZM617.026,292.551A11.642,11.642,0,0,0,605.4,304.18v78.3a11.642,11.642,0,0,0,11.629,11.629h95.359a11.642,11.642,0,0,0,11.629-11.629v-78.3a11.642,11.642,0,0,0-11.629-11.629Z" transform="translate(-272.264 -159.978)" fill="#f2f2f2"/>
      <rect id="Rectangle_802" data-name="Rectangle 802" width="120.168" height="103.112" rx="16" transform="translate(496.717 134.899)" fill="#f2f2f2"/>
      <path id="Path_806" data-name="Path 806" d="M712.385,583.663H617.026a13.194,13.194,0,0,1-13.18-13.18v-78.3A13.2,13.2,0,0,1,617.026,479h95.359a13.2,13.2,0,0,1,13.18,13.18v78.3a13.2,13.2,0,0,1-13.18,13.18ZM617.026,480.551A11.642,11.642,0,0,0,605.4,492.18v78.3a11.642,11.642,0,0,0,11.629,11.629h95.359a11.642,11.642,0,0,0,11.629-11.629v-78.3a11.642,11.642,0,0,0-11.629-11.629Z" transform="translate(-272.264 -202.225)" fill="#f2f2f2"/>
      <rect id="Rectangle_803" data-name="Rectangle 803" width="120.168" height="103.112" rx="16" transform="translate(496.717 280.652)" fill="#f2f2f2"/>
      <path id="Path_807" data-name="Path 807" d="M647.939,381.992h-.052l-10.846-.4a1.4,1.4,0,0,1-1.351-1.25c-.746-6.661-3.819-40.6,9.051-54.71a18.41,18.41,0,0,1,14.566-6.119.61.61,0,0,0,.559-.291l2.626-4.126a1.423,1.423,0,0,1,1.359-.644c2.105.254,12.836,1.455,17.348.149a1.412,1.412,0,0,1,1.491.459l3.448,4.214a.6.6,0,0,0,.5.233c1.754-.035,7.9.3,13.284,6.324,5.828,6.518,11.842,21.224,7.4,54.267a1.421,1.421,0,0,1-1.4,1.228H697.38a1.42,1.42,0,0,1-1.4-1.21l-2.791-19.255a.637.637,0,0,0-1.268.078l-.192,9.04a1.415,1.415,0,0,1-.839,1.261c-3.045,1.339-19.136,7.619-36.921-.246a1.425,1.425,0,0,1-.839-1.236l-.35-8.214a.637.637,0,0,0-1.27-.044l-2.168,19.24A1.42,1.42,0,0,1,647.939,381.992Z" transform="translate(-279.227 -165.245)" fill="#f2f2f2"/>
      <path id="Path_808" data-name="Path 808" d="M691.541,566.216h-.008l-42.5-.269a1.269,1.269,0,0,1-1.251-1.119l-4.275-36.34a.978.978,0,0,0-.944-.87c-3.374-.11-11.4-.879-13.065-5.631-1.482-4.232,2.571-10.474,12.044-18.553a1.269,1.269,0,0,1,2.043.609L648.5,521.01a.992.992,0,0,0,.94.712l40.3.27a.981.981,0,0,0,.947-.691l5.472-17.411a1.267,1.267,0,0,1,1.978-.628c3.734,2.852,15.763,12.643,13.783,18.9-1.037,3.28-5.714,5.108-13.9,5.433a.981.981,0,0,0-.941.87L692.8,565.1a1.266,1.266,0,0,1-1.259,1.121Z" transform="translate(-277.962 -207.618)" fill="#f2f2f2"/>
      <path id="Path_809" data-name="Path 809" d="M925.316,375.979a89.6,89.6,0,0,0-36.83,16.311,6.831,6.831,0,0,0-2.937-3.488,10.311,10.311,0,0,0-2.98-1.252,3,3,0,0,0-2.724,1.177,15.419,15.419,0,0,0-2.423,3.588c-14.6-10.018-36.736-16.411-36.736-16.411v-2a11.051,11.051,0,0,1,.144-1.409c.075-.538.169-1.014.288-1.6,1.878-9.555,9.3-31.389,9.3-31.389h8.4l16.28,3.381,18.315-1.121,18.446-3.838,2.392-.5c3.989,3.131,8.516,25.046,10.294,34.375.225,1.183.4,2.16.532,2.88C925.234,375.5,925.316,375.979,925.316,375.979Z" transform="translate(-325.487 -170.411)" fill="#fff"/>
      <path id="Path_810" data-name="Path 810" d="M879.865,511.17h0s-3.9.975-9.949,17.358-8.191,37.55-8.191,37.55-3.4,5.759,11.116,6.145c0,0-1.168,3.8,7.024,3.22s7.012-.578,7.012-.578,5.266-3.316,7.607-2.732,3.8.782,6.338,2.925,10.635,1.27,10.731-.385a15.288,15.288,0,0,0,0-2.443s12.386.782,10.045-8.191-4.291-23.7-4.291-23.7-6.338-28.769-13.56-29.16S879.865,511.17,879.865,511.17Z" transform="translate(-330.137 -209.416)" fill="#fff"/>
      <circle id="Ellipse_61" data-name="Ellipse 61" cx="23.258" cy="23.258" r="23.258" transform="translate(126.092 227.619)" fill="#2f2e41"/>
      <circle id="Ellipse_62" data-name="Ellipse 62" cx="19.042" cy="19.042" r="19.042" transform="translate(132.262 236.097)" fill="#ffb8b8"/>
      <path id="Path_811" data-name="Path 811" d="M448.343,523.3a8.16,8.16,0,0,0-.831.98l-38.424-1.357-4.4-8.242-13.306,5.007,6.362,15.347a6.2,6.2,0,0,0,6.406,3.79l43.481-4.774a8.138,8.138,0,1,0,.707-10.75Z" transform="translate(-224.521 -210.243)" fill="#ffb8b8"/>
      <path id="Path_812" data-name="Path 812" d="M382.353,520.525a3.731,3.731,0,0,1-2.049-2.339l-5.352-17.963a10.371,10.371,0,1,1,18.768-8.832l10.367,15.688a3.734,3.734,0,0,1-1.536,5.442l-17.09,7.98A3.73,3.73,0,0,1,382.353,520.525Z" transform="translate(-220.605 -203.671)" fill="#ccc"/>
      <path id="Path_813" data-name="Path 813" d="M252.365,632.65l8.348-4.545-13.556-34.362-12.321,6.707Z" transform="translate(-52.773 -133.426)" fill="#ffb8b8"/>
      <path id="Path_814" data-name="Path 814" d="M428.94,760.89l16.44-8.949h0a11.928,11.928,0,0,1,16.18,4.774l.185.34-26.917,14.653Z" transform="translate(-232.96 -263.233)" fill="#2f2e41"/>
      <path id="Path_815" data-name="Path 815" d="M138.958,633.348h9.5l4.522-36.661H138.956Z" transform="translate(-31.226 -134.087)" fill="#ffb8b8"/>
      <path id="Path_816" data-name="Path 816" d="M311.985,761.973H330.7A11.929,11.929,0,0,1,342.633,773.9v.388H311.985Z" transform="translate(-206.678 -265.814)" fill="#2f2e41"/>
      <path id="Path_817" data-name="Path 817" d="M373.555,554.3l3.1,37.213,34.592,103.776a3.1,3.1,0,0,1-2.224,4l-10.6,2.524a3.1,3.1,0,0,1-3.487-1.621L350.71,612.463a1.551,1.551,0,0,0-2.9.365l-19.462,88.663a3.1,3.1,0,0,1-3.029,2.436h-9.863a3.1,3.1,0,0,1-3.1-3.143c.9-61.477-2.078-131.529,21.658-142.61l3.876-10.079Z" transform="translate(-206.761 -217.752)" fill="#2f2e41"/>
      <path id="Path_818" data-name="Path 818" d="M342.6,536.412l-4-24.171a23.939,23.939,0,0,1,7.573-21.712,23.538,23.538,0,0,1,21.965-5.369c.227.061.453.123.68.187a23.866,23.866,0,0,1,17.233,21.2c.763,10.5.08,25.727-7.5,38.663l-.147.251Z" transform="translate(-212.586 -203.43)" fill="#ccc"/>
      <path id="Path_819" data-name="Path 819" d="M384.985,435.082a25.9,25.9,0,0,1-14.8,4.574,15.87,15.87,0,0,0,6.29,2.588,52.223,52.223,0,0,1-21.331.12,13.807,13.807,0,0,1-4.465-1.534,5.651,5.651,0,0,1-2.756-3.686c-.468-2.674,1.615-5.1,3.78-6.74a27.885,27.885,0,0,1,23.432-4.682,12.832,12.832,0,0,1,6.94,3.922c1.7,2.1,2.2,5.343.584,7.507Z" transform="translate(-214.738 -190.064)" fill="#2f2e41"/>
      <path id="Path_820" data-name="Path 820" d="M345.3,410.048c2.207-8.912-5.7-18.814-14.884-18.629-9.314.188-16.168,8.6-20.879,16.641s-9.394,17.146-18.043,20.606a18.629,18.629,0,0,1-25.542-17.749c-1.161,9.763.448,20.327,6.744,27.879s18.012,10.955,26.433,5.88c4.81-2.9,7.884-7.937,10.418-12.948s4.79-10.295,8.63-14.392,9.778-6.816,15.122-5.093c2.121.684,4.025,2.018,6.216,2.424s4.951-.636,5.251-2.845Z" transform="translate(-196.254 -182.543)" fill="#2f2e41"/>
      <path id="Path_821" data-name="Path 821" d="M308.624,598.781a8.329,8.329,0,0,1,2.126-12.593l16.518-74.037,16.756,6.877-21.505,70.613a8.374,8.374,0,0,1-13.895,9.139Z" transform="translate(-205.475 -209.675)" fill="#ffb8b8"/>
      <path id="Path_822" data-name="Path 822" d="M324.669,517.418a3.73,3.73,0,0,1-.261-3.1l6.352-17.634a10.371,10.371,0,1,1,20.347,4.029l-.965,18.779a3.735,3.735,0,0,1-4.466,3.469l-18.491-3.718a3.73,3.73,0,0,1-2.517-1.827Z" transform="translate(-209.42 -204.321)" fill="#ccc"/>
      <path id="Path_22" data-name="Path 22" d="M490.77,510.857l-.275-.038,1.036-7.538a4.4,4.4,0,0,0-3.763-4.963l-15.97-2.2a4.4,4.4,0,0,0-4.963,3.763l-5.685,41.354a4.4,4.4,0,0,0,3.763,4.963l15.97,2.2a4.4,4.4,0,0,0,4.963-3.763l3.911-28.45.275.038Z" transform="translate(-240.189 -206.064)" fill="#3f3d56"/>
      <path id="Path_23" data-name="Path 23" d="M487.81,501.2l-1.988-.273a1.49,1.49,0,0,1-1.647,1.846l-8.727-1.2a1.49,1.49,0,0,1-1.087-2.222L472.5,499.1a3.137,3.137,0,0,0-3.535,2.681l-5.415,39.388a3.137,3.137,0,0,0,2.681,3.535l15.307,2.1a3.137,3.137,0,0,0,3.535-2.681h0l5.414-39.388a3.137,3.137,0,0,0-2.681-3.535Z" transform="translate(-240.731 -206.735)" fill="#fff"/>
      <circle id="Ellipse_63" data-name="Ellipse 63" cx="8.528" cy="8.528" r="8.528" transform="translate(227.694 310.112)" fill="#004260"/>
      <path id="Path_823" data-name="Path 823" d="M478.917,535.316a.884.884,0,0,1-.532-.177l-.01-.007-2-1.534a.89.89,0,1,1,1.083-1.414l1.3,1,3.068-4a.89.89,0,0,1,1.248-.165l-.019.026.02-.026a.891.891,0,0,1,.165,1.248l-3.608,4.706A.891.891,0,0,1,478.917,535.316Z" transform="translate(-243.54 -213.423)" fill="#fff"/>
      <path id="Path_824" data-name="Path 824" d="M496.385,777.551H201A.775.775,0,1,1,201,776H496.385a.775.775,0,0,1,0,1.551Z" transform="translate(-181.564 -268.967)" fill="#fafafa"/>
    </g>
  </g>
</svg>
