<svg xmlns="http://www.w3.org/2000/svg" xmlns:xlink="http://www.w3.org/1999/xlink" width="110" height="153" viewBox="0 0 110 153">
  <defs>
    <clipPath id="clip-Logo">
      <rect width="110" height="153"/>
    </clipPath>
  </defs>
  <g id="Logo" clip-path="url(#clip-Logo)">
    <g id="Group_415" data-name="Group 415" transform="translate(3.608 7.421)">
      <path id="Path_247" data-name="Path 247" d="M307.691,253.219c-.006,7.117-.1,14.234.012,21.348a5.836,5.836,0,0,0,8.985,4.99c15.726-9.31,31.526-18.495,47.3-27.729a6.259,6.259,0,0,0,.048-10.975c-15.767-9.238-31.575-18.409-47.289-27.739a5.914,5.914,0,0,0-9.08,5.135,2.254,2.254,0,0,1-2.378,2.334A2.344,2.344,0,0,1,303,218.117a10.763,10.763,0,0,1,.484-3.128,10.382,10.382,0,0,1,15.237-6.1q5.3,3.052,10.554,6.18c.743.444,1.038.512,1.352-.45a10.261,10.261,0,0,1,14.921-5.8q24.082,14.016,48.092,28.158a10.853,10.853,0,0,1-.059,18.717q-23.9,14.1-47.89,28.06a10.314,10.314,0,0,1-15.108-5.8c-.095-.284-.2-.564-.331-.94-2.954,1.73-5.877,3.452-8.811,5.155a43.131,43.131,0,0,1-3.959,2.194,10.391,10.391,0,0,1-14.328-8.505,2.843,2.843,0,0,0,.092-1.232q.009-11.123.009-22.245a4.05,4.05,0,0,1-.011-.939v5.559q0,8.512-.006,17.024c0,.4.13.833-.13,1.213a4.235,4.235,0,0,1-.116-1.572c-.012-8.854-.032-17.707,0-26.561,0-.913-.261-1.172-1.133-1.1a17.94,17.94,0,0,1-2.609,0,2.27,2.27,0,0,1-2.3-2.411,2.3,2.3,0,0,1,2.451-2.27c.832-.017,1.669-.054,2.5.011.8.063,1.175-.119,1.1-1.027a20.8,20.8,0,0,1-.006-2.949c.036-.667-.219-.839-.84-.806-.868.045-1.74.024-2.61.009a2.371,2.371,0,0,1-2.59-2.385c0-1.417,1-2.315,2.619-2.341.908-.014,1.817-.031,2.724.009.559.025.708-.185.695-.717q-.047-1.928,0-3.859a2.43,2.43,0,0,1,2.716-2.63c4.843,0,9.685.025,14.528,0a13.81,13.81,0,0,1,12.388,6.628,1.122,1.122,0,0,0,1.1.572q2.44-.035,4.88,0a2.385,2.385,0,0,1,2.611,2.382,2.448,2.448,0,0,1-2.668,2.341c-1.1.014-2.2.028-3.291-.007-.562-.018-.659.131-.609.707a17.7,17.7,0,0,1,0,3.283c-.072.717.15.81.761.788,1.1-.041,2.194-.025,3.291-.008a2.389,2.389,0,0,1,2.513,2.36,2.343,2.343,0,0,1-2.433,2.324c-1.55.051-3.1.057-4.652,0a1.748,1.748,0,0,0-1.727.915,13.428,13.428,0,0,1-10.407,6.2,17.586,17.586,0,0,0-3.266-.086c-3.321-.021-6.642-.013-9.962,0C308.4,253.049,307.993,252.868,307.691,253.219Z" transform="translate(-296.18 -172.788)" fill="#00263d"/>
      <path id="Path_248" data-name="Path 248" d="M410.326,406.1a1.216,1.216,0,0,1-.8,1.221,1.7,1.7,0,0,1-1.975-.426,6.43,6.43,0,0,1-1.005-2.018,1.187,1.187,0,0,0-1.324-.914c-1.815.055-3.632.036-5.449.006a.94.94,0,0,0-1.087.724,10.57,10.57,0,0,1-.842,1.854,1.64,1.64,0,0,1-2.226.747c-.935-.477-.85-1.262-.494-2.046q2.762-6.09,5.559-12.164a2,2,0,0,1,1.937-1.324,1.97,1.97,0,0,1,1.817,1.312q2.839,6.176,5.681,12.35A4.65,4.65,0,0,1,410.326,406.1Z" transform="translate(-349.555 -273.241)" fill="#f3333e"/>
      <path id="Path_249" data-name="Path 249" d="M318.067,406.566c-.255,1.132-1.112,1.219-2.018,1.092s-1.223-.809-1.225-1.644c-.008-4.043-.021-8.085.009-12.127.009-1.219.465-1.619,1.677-1.629,1.926-.016,3.853-.027,5.779,0a4.508,4.508,0,0,1,4.838,4.694A4.594,4.594,0,0,1,322.481,402c-1.431.084-2.87.04-4.305.054A14.656,14.656,0,0,0,318.067,406.566Z" transform="translate(-305.923 -273.507)" fill="#00263d"/>
      <path id="Path_250" data-name="Path 250" d="M311.733,151.476c.045,1.537-1.131,2.363-2.1,3.117a8.8,8.8,0,0,1-14.259-5.764,8.9,8.9,0,0,1,11.2-9.7,4.486,4.486,0,0,1,2.029.921c.516.573,1.234.9,1.781,1.432l1.378,1.8c-.279.7-.644.366-.954.052a4.213,4.213,0,0,0-1.369-1.159l-.654-.4c-.212-.383-.615-.4-.971-.5a7.229,7.229,0,0,0-6.261.876,6.707,6.707,0,0,0-1.135,10.09c.226.25.462.49.693.735,2.494,2.7,8.3,1.819,9.918-1.337l.031.053-.038-.048C311.251,151.551,311.457,151.367,311.733,151.476Z" transform="translate(-295.273 -135.381)" fill="#033b62"/>
      <path id="Path_251" data-name="Path 251" d="M350.8,411.48a4.231,4.231,0,0,1-5.978.457,3.13,3.13,0,0,1-.987-3.189,2.61,2.61,0,0,1,2.243-1.966,21.068,21.068,0,0,1,3.483-.415c.365-.021,1,.395,1.1-.347a1.275,1.275,0,0,0-.941-1.588,5.555,5.555,0,0,0-3.01.242c-.764.228-1.609.84-2.147-.284-.425-.888.044-1.564,1.394-1.99a8.72,8.72,0,0,1,4.571-.37,3.744,3.744,0,0,1,3.3,3.842c.052,1.776.006,3.555.02,5.332.008.886-.218,1.6-1.23,1.719A1.426,1.426,0,0,1,350.8,411.48Z" transform="translate(-321.686 -278.753)" fill="#00263d"/>
      <path id="Path_252" data-name="Path 252" d="M476.534,412.966c-2.466.019-4.411-.61-5.53-2.651a5.707,5.707,0,0,1,.114-5.938,5.428,5.428,0,0,1,6.328-2.27,4.993,4.993,0,0,1,3.4,4.848c.028.891-.4,1.218-1.237,1.212-1.814-.013-3.627.021-5.44-.015-.7-.014-.762.265-.534.8a2.359,2.359,0,0,0,2.08,1.511,5.889,5.889,0,0,0,3.2-.49c.639-.308,1.214-.25,1.536.418a1.2,1.2,0,0,1-.5,1.668A6.2,6.2,0,0,1,476.534,412.966Z" transform="translate(-390.621 -278.749)" fill="#f3333e"/>
      <path id="Path_253" data-name="Path 253" d="M374.789,408.873c.79-1.936,1.482-3.637,2.181-5.334a5.154,5.154,0,0,1,.392-.812,1.518,1.518,0,0,1,2.073-.593,1.263,1.263,0,0,1,.536,1.842c-1.735,3.969-3.475,7.937-5.251,11.888a1.656,1.656,0,0,1-2.26.916,1.354,1.354,0,0,1-.485-2.128c1.206-1.761.877-3.379-.052-5.123-.815-1.525-1.418-3.163-2.114-4.751-.655-1.494-.561-2.285.316-2.653,1.148-.482,2.036.015,2.631,1.513C373.416,405.3,374.05,406.968,374.789,408.873Z" transform="translate(-335.662 -278.797)" fill="#00263d"/>
      <path id="Path_254" data-name="Path 254" d="M431.308,402.956q0-1.079,0-2.157c0-.872.269-1.865-1.258-1.7-.6.063-.81-.578-.809-1.163,0-.654.286-1.194.956-1.172.963.031,1.1-.43,1.218-1.25a4,4,0,0,1,3.547-3.335,12.912,12.912,0,0,1,1.575-.187c.768-.043,1.355.195,1.4,1.092a1.1,1.1,0,0,1-1.174,1.33c-.957.043-1.811.251-2.124,1.331-.184.635-.1,1.035.705.966a4.416,4.416,0,0,1,1.129.05,1.232,1.232,0,0,1-.086,2.4c-.584.085-1.416-.3-1.7.214a4.6,4.6,0,0,0-.13,2c-.011,1.513.013,3.028-.01,4.54-.017,1.145-.494,1.622-1.559,1.642-1.119.022-1.654-.484-1.679-1.643C431.291,404.924,431.308,403.94,431.308,402.956Z" transform="translate(-368.284 -273.366)" fill="#f3333e"/>
      <path id="Path_255" data-name="Path 255" d="M451.529,403.67c0-.417-.023-.834,0-1.249.061-.923.09-1.717-1.276-1.562-.655.074-.951-.525-.958-1.166s.322-1.2.964-1.177c1.153.047,1.347-.461,1.289-1.477-.08-1.4.413-1.875,1.643-1.859,1.159.016,1.663.491,1.551,1.838-.1,1.25.377,1.6,1.506,1.429a3.093,3.093,0,0,1,.792.02,1.115,1.115,0,0,1,1.055,1.344c-.042.712-.443,1.052-1.177,1.1-2.148.148-2.147.165-2.147,2.332v.795c0,2.341.3,2.642,2.6,2.514.524-.029.929.058,1,.639.086.735.067,1.471-.712,1.874a4.249,4.249,0,0,1-6.125-3.58c-.019-.605,0-1.211,0-1.816Z" transform="translate(-379.216 -275.108)" fill="#f3333e"/>
      <path id="Path_256" data-name="Path 256" d="M500.984,403.573a3.731,3.731,0,0,1,2.716-1.679c.663-.116,1.285-.038,1.433.709s.318,1.652-.732,1.986c-.532.169-1.107.205-1.655.331a1.985,1.985,0,0,0-1.705,1.975c-.054,1.357-.017,2.717-.045,4.076-.03,1.479-.485,1.981-1.72,1.957-1.183-.023-1.6-.52-1.6-1.938,0-2.38.015-4.76-.009-7.14-.01-.959.141-1.737,1.282-1.906C500.018,401.787,500.556,402.174,500.984,403.573Z" transform="translate(-405.573 -278.743)" fill="#f3333e"/>
      <path id="Path_257" data-name="Path 257" d="M415.7,148.074c.85,2.378,1.691,4.759,2.554,7.131.216.594.408,1.2,1.183,1.381,1.333.32,2.123-.126,2.157-1.488.068-2.719.037-5.44.042-8.16,0-.75-.454-1.062-1.134-1.162-.251-.036-.6-.052-.54-.419s.418-.239.661-.24c.982-.006,1.965.009,2.946.006.271,0,.536-.019.678.278.643,1.347,1.807,2.313,2.593,3.555a.208.208,0,0,1-.029.322c-1.215.014-1.547-1.039-2.094-1.791a6,6,0,0,0-1.274-1.565.941.941,0,0,0-1.066-.118c-.305.2-.091.552-.093.842-.014,2.789.05,5.579-.052,8.365-.024.641-.012,1.408-.773,1.781.705-.056.835-.326.824-1.108-.033-2.373-.046-4.751.014-7.126.022-.9.737-1.259,1.486-.7a6.739,6.739,0,0,1,2.379,3.433.269.269,0,0,1-.343.007c-1.075-.968-1.72-2.334-3.057-3.377a70.641,70.641,0,0,0,.138,7.629c.088.774.612.965,1.242,1.081.216.04.506.055.5.347,0,.308-.274.289-.505.289q-4.48,0-8.96-.006c-.221,0-.5.009-.511-.3-.007-.221.225-.287.411-.3.78-.072.8-.527.575-1.112-.014-.035-.025-.071-.035-.107-.72-2.45-1.2-2.742-3.739-2.368a.773.773,0,0,0-.7.612c-.15.468-.3.936-.474,1.395-.29.764-.547,1.492.7,1.58.186.013.39.115.363.348s-.231.265-.43.265c-1.1,0-2.193,0-3.289,0-.184,0-.406-.029-.414-.278s.207-.289.393-.309c.851-.091,1.188-.695,1.45-1.4,1.09-2.939,2.213-5.866,3.266-8.818a1.335,1.335,0,0,1,.908-.874c.47.784-.787,1.559-.3,1.984a3.129,3.129,0,0,1,1.041,1.9c.078.37.176.733.286,1.094.536,1.761.155,2.241-1.647,2.112.339-.025.722.188,1.064.016.933-.468,1.3.07,1.594.821a8.852,8.852,0,0,1,.494,1.5c.32,1.634.188,1.659,1.969,1.633a56.663,56.663,0,0,1-2.636-7.741A.742.742,0,0,1,415.7,148.074Z" transform="translate(-356.508 -138.816)" fill="#0c3c5e"/>
      <path id="Path_258" data-name="Path 258" d="M388.578,157.442l-.068.037-.064-.045c-.347-.311-.819.013-1.18-.233a3.541,3.541,0,0,1-2.685-3.635c-.078-1.964-.039-3.932-.052-5.9-.006-.883.052-1.8-1.179-1.956-.181-.023-.364-.142-.288-.39s.3-.193.473-.193q2.269-.009,4.537,0c.177,0,.413-.052.468.2.069.309-.188.394-.4.419a1.091,1.091,0,0,0-1.019,1.262c.006,2.155,0,4.31.071,6.463a3.251,3.251,0,0,0,1.718,2.991,4.746,4.746,0,0,0,2.951-.074.6.6,0,0,1,.717.138,3.308,3.308,0,0,1-2.243.915A3.994,3.994,0,0,1,388.578,157.442Z" transform="translate(-343.108 -138.83)" fill="#033b62"/>
      <path id="Path_259" data-name="Path 259" d="M472.036,146.142c1.667-1.122,1.666-1.122,2.322.782q1.588,4.6,3.177,9.2c.327,1.076.327,1.076-.8,1.081-.264,0-.528,0-.791,0-.58.013-1,.116-.94-.85a6.7,6.7,0,0,0-.811-2.782.666.666,0,0,0-.7-.456,16.872,16.872,0,0,0-3.023.109l-.215.23c-.243.208-.138.892-.68.633-.344-.164-.157-.612-.018-.906.225-.474.24-1.146,1-1.176a.531.531,0,0,1,.292.122c.71.651,1.557.325,2.351.3.3-.01.405-.3.3-.6a6.158,6.158,0,0,0-.283-.968,18.513,18.513,0,0,1-.733-1.946c-.1-.271-.23-.512-.488-.1-.2.376-.224.857-.673,1.071-.293-.077-.329-.287-.283-.541A31.354,31.354,0,0,0,472.036,146.142Z" transform="translate(-390.157 -138.969)" fill="#043b62"/>
      <path id="Path_260" data-name="Path 260" d="M339.449,146.558a23.741,23.741,0,0,1,.009,3.654c.709.854,1.354.915,2.9.275.471-.316.087-1.229.908-1.3a17.856,17.856,0,0,1,.121,3.368c.01.179.032.427-.2.461-.258.038-.2-.374-.448-.4l-.393-.875c-.055-.174-.214-.207-.358-.261a9.271,9.271,0,0,0-2.186.025.6.6,0,0,0-.345.471,13.32,13.32,0,0,1-.009,2.766c.212.386-.089.866.23,1.232l0-.012c.093.536.584.608.95.844s.236.4-.148.425c-1.131,0-2.259,0-3.387,0-.413-.022-.972.05-.343-.591a3.011,3.011,0,0,0,.351-.565c.346-.657.032-1.334.041-2q.042-3.438.007-6.875c-.142-.445-.019-1.05-.7-1.18l.012,0c-.1-.163-.375-.132-.424-.33s.115-.258.264-.255a17.865,17.865,0,0,1,4.591.252c.077.021.107.1.1.229C340.628,146.444,339.663,145.655,339.449,146.558Z" transform="translate(-317.482 -138.988)" fill="#023b63"/>
      <path id="Path_261" data-name="Path 261" d="M421.468,148.041a11.3,11.3,0,0,0,.839,3.241c.393,1.187.793,2.359,1.077,3.583a8.361,8.361,0,0,0,1.038,1.947c-.074.038-.131.093-.19.095-2.1.042-2.078.037-2.588-2.044-.142-.58-.44-1.12-.626-1.691-.151-.464-.391-.506-.854-.43a12.437,12.437,0,0,1-1.948.025,1.61,1.61,0,0,1,1.2-.241c.736.028,1.222-.336.969-1.213s-.472-1.736-.708-2.6c-.049-.179-.057-.477-.162-.518-1.417-.551-.551-1.354-.256-2.1.068-.173.107-.357.159-.536l-.013-.012c.394-.079.568-.732,1.109-.426C420.643,146.154,421.378,146.992,421.468,148.041Z" transform="translate(-362.276 -138.782)" fill="#033b61"/>
      <path id="Path_262" data-name="Path 262" d="M453.805,145.992c-.036-.011-.083-.011-.107-.034-.385-.363-1.4-.114-1.288-.611.157-.682,1.022-.216,1.572-.268.711-.067,1.432-.016,2.149-.027.242,0,.459.019.546.283.113.344-.169.348-.375.409-.772.234-.85.875-.9,1.533-.224,2.94-.08,5.884-.109,8.825,0,.459.213,1.01-.464,1.237s-.857-.328-1.121-.7a16.366,16.366,0,0,1-1.669-2.261,3.787,3.787,0,0,0-.743-.871l.015.018c-.036-.318-.389-.522-.319-.879a7.543,7.543,0,0,1,.832-1.3.768.768,0,0,1,.221-.207c.241-.073.326.2.518.236l-.012-.012c.177.624.731.948,1.134,1.383.274.294.723.3.713-.213-.038-2.068.3-4.157-.317-6.195A.612.612,0,0,0,453.805,145.992Z" transform="translate(-380.134 -138.747)" fill="#063b62"/>
      <path id="Path_263" data-name="Path 263" d="M442.2,151.51c-.905-.849-1.276-2.094-2.214-2.936-.341-.306-.626-.571-1.067-.434-.564.176-.341.695-.345,1.07-.02,2.08-.006,4.159-.009,6.239,0,.57-.075,1.159.874,1.5a5.8,5.8,0,0,1-2.341.226,2.53,2.53,0,0,0,.975-2.481c-.028-2.825.308-5.663-.187-8.478-.034-.192-.207-.535.114-.564.587-.052,1.3-.289,1.741.177A8.729,8.729,0,0,1,441.1,147.6a3.5,3.5,0,0,0,1.784,1.869,8.249,8.249,0,0,1,.929.91l.209.223c.108.324.583.465.457.907h0a9.53,9.53,0,0,0-1.346,1.21.337.337,0,0,1-.293-.033l.008.007C442.844,152.184,442.165,152.04,442.2,151.51Z" transform="translate(-372.568 -139.059)" fill="#053c62"/>
      <path id="Path_264" data-name="Path 264" d="M373.414,149.9a2.118,2.118,0,0,1-1.582,1.137.583.583,0,0,1-.1-.2.708.708,0,0,0,.107.188l-.213.213c-.371.482.052.55.354.656a4.727,4.727,0,0,1,2.123,1.6,2.8,2.8,0,0,1-.945,3.635,5.976,5.976,0,0,0-1.565.72l.018-.01a2.214,2.214,0,0,1-1.348,0,.357.357,0,0,1,.136-.461c1.406-.921,1.186-2.273.987-3.628a1.132,1.132,0,0,0-1.083-1.087c-.742-.294-1.587-.05-2.31-.442-.19-.547.277-.5.553-.572.351-.1.752-.01,1.045-.307,1.193-.441,1.492-1.464,1.67-2.566.435-.258.431.2.615.468-.112-.953-.112-.953-.563-.914-.6-.277-.592-.858-.7-1.382.37-.423.831-.2,1.263-.18.434.12.858.254.935.794a2.689,2.689,0,0,0,.676,1.908A.565.565,0,0,1,373.414,149.9Z" transform="translate(-334.882 -139.683)" fill="#043c63"/>
      <path id="Path_265" data-name="Path 265" d="M402.614,156.52l-.726-.019a.176.176,0,0,1-.033-.309l.642-.622a2.439,2.439,0,0,0,.728-1.638c.13-2.075.12-4.151.042-6.228-.036-.978-.174-1.829-1.389-1.962-.21-.023-.472-.1-.4-.419.056-.248.289-.2.463-.2,1.209-.005,2.417,0,3.626,0,.192,0,.4.006.434.245s-.144.348-.333.384c-1.231.23-1.2,1.23-1.234,2.116-.065,1.66-.02,3.324-.072,4.985A4.089,4.089,0,0,1,402.614,156.52Z" transform="translate(-353.147 -138.826)" fill="#0b3f63"/>
      <path id="Path_266" data-name="Path 266" d="M457.426,185.931c.927-.8.973-5.1.108-6.128h2.472c-.843,1.119-.822,5.2.053,6.128Z" transform="translate(-383.645 -157.73)" fill="#e94c41"/>
      <path id="Path_267" data-name="Path 267" d="M446.056,185.63a11.244,11.244,0,0,0-.216-5.8h2.624c-.906.384-.862.955-.86,1.515,0,1.1-.018,2.2.014,3.292.011.372-.123.879.484.983a.218.218,0,0,1-.079.336C447.377,185.792,446.6,186.4,446.056,185.63Z" transform="translate(-377.33 -157.744)" fill="#e94a40"/>
      <path id="Path_268" data-name="Path 268" d="M381.34,185.632c.5-.21.432-.65.432-1.061,0-1.018.01-2.036,0-3.054-.007-.613.2-1.3-.532-1.729h2.286c-.806,1.793-.308,3.68-.353,5.527.037.208.478.358.089.627C382.625,185.8,381.886,186.316,381.34,185.632Z" transform="translate(-342.123 -157.722)" fill="#e84c41"/>
      <path id="Path_269" data-name="Path 269" d="M393.178,185.66c.625-1.441.139-2.955.29-4.426.057-.554-.059-1.025-.914-1.4h2.768c-.777.75-.474,1.688-.534,2.566a.719.719,0,0,1-.012.79c.108.808-.188,1.653.226,2.432A1.325,1.325,0,0,1,393.178,185.66Z" transform="translate(-348.29 -157.744)" fill="#e94b42"/>
      <path id="Path_270" data-name="Path 270" d="M433.97,185.551a13.288,13.288,0,0,0-.222-5.765H435.9c-.9,1.668-.352,3.452-.427,5.185-.014.34.356.452.6.619a.23.23,0,0,1-.1.344c-.51.042-1.02.02-1.529.016C434.188,185.948,433.9,185.951,433.97,185.551Z" transform="translate(-370.741 -157.721)" fill="#e74d42"/>
      <path id="Path_271" data-name="Path 271" d="M482.627,179.97c.947.348,1.633.874,1.382,2.036a4.713,4.713,0,0,1-.661.741c-.26,1.159.63,1.812,1.157,2.625.136.21.493.193.557.614a2.094,2.094,0,0,1-2.386-1c-.275-.447-.506-.922-.757-1.385-.3-.344-.918.072-1.146-.466a3.382,3.382,0,0,1,.086-2.969c.754.213.374.854.479,1.307.081.349-.067.791.4.963a.457.457,0,0,0,.493-.206,1.018,1.018,0,0,0,.156-1.158c-.169-.383-.626-.56-.7-1.006C481.967,179.715,482.294,179.813,482.627,179.97Z" transform="translate(-396.204 -157.743)" fill="#e64b42"/>
      <path id="Path_272" data-name="Path 272" d="M365.385,152.874c.738.049,1.082.418,1.253,1.172.484,2.13.244,3.1-1.306,4.218l1.26.067a5.194,5.194,0,0,1-2.318.346c-1.656.044-3.315-.015-4.973-.031-.227,0-.511.016-.558-.256s.234-.38.448-.4c.967-.095,1.081-.731,1.069-1.527-.044-2.939-.058-5.88-.084-8.82a.265.265,0,0,1,.367.075,1.079,1.079,0,0,1,.16.388c.1,2.832.021,5.665.043,8.5a.672.672,0,0,0,0,.217c.152.384-.525,1.046.262,1.164.706.106,1.615.329,1.858-.8.28-.172.5.031.732.124a1.82,1.82,0,0,0,2.662-1.6C366.451,154.575,365.609,153.835,365.385,152.874Z" transform="translate(-329.861 -140.178)" fill="#113f60"/>
      <path id="Path_273" data-name="Path 273" d="M467.485,156.721c-.9.311-1,1.1-1.234,1.865.521.117.464-.394.744-.458a7.415,7.415,0,0,1-.6,2.042c-.206.642-.357,1.189.6,1.27.232.019.595.052.5.444-.069.294-.358.2-.573.205-.98.005-1.96.01-2.94.009-.216,0-.5.057-.569-.226-.084-.326.2-.356.418-.382.792-.1,1.129-.637,1.388-1.311.472-1.226.985-2.436,1.481-3.653a6.5,6.5,0,0,0,.7-1.889c.018-.221-.054-.47.19-.622a.17.17,0,0,1,.3.029.451.451,0,0,0,.253.452A3.337,3.337,0,0,1,467.485,156.721Z" transform="translate(-386.901 -143.636)" fill="#0d3d60"/>
      <path id="Path_274" data-name="Path 274" d="M466.242,185.573a13.069,13.069,0,0,0,0-5.394c.371-.781,1.039-.191,1.549-.334a.242.242,0,0,1,.084.343l.014-.021a3.727,3.727,0,0,0,.035,2.442.35.35,0,0,1-.05.344,6.741,6.741,0,0,0,0,2.361c.055.2.5.355.077.616C467.393,185.76,466.677,186.342,466.242,185.573Z" transform="translate(-388.449 -157.709)" fill="#ea483d"/>
      <path id="Path_275" data-name="Path 275" d="M338.766,146.4c.037-.991.9-.353,1.3-.67a13.773,13.773,0,0,0-4.125-.359c-.713-.022-.234.29-.167.493a6.517,6.517,0,0,1-.666-.106c-.183-.048-.371-.156-.33-.381s.244-.256.441-.256q4.125.007,8.25.013c.334,0,.464.181.484.487a4.844,4.844,0,0,1,.054.787c-.056.536.482,1.348-.095,1.543-.691.235-.6-.753-.916-1.163C342.3,145.863,339.836,145.606,338.766,146.4Z" transform="translate(-316.799 -138.827)" fill="#0e3f61"/>
      <path id="Path_276" data-name="Path 276" d="M310.945,133.553l-.335-.013a12.723,12.723,0,0,1-2.442.083c-.206.008-.489.1-.6-.153-.127-.3.185-.439.332-.633.186-.246.505-.3.722-.508a4.375,4.375,0,0,1,3.346-.505,3.271,3.271,0,0,1,2.168,1.662,2.277,2.277,0,0,1-1.575.035A2.118,2.118,0,0,0,310.945,133.553Z" transform="translate(-301.959 -131.516)" fill="#083d68"/>
      <path id="Path_277" data-name="Path 277" d="M480,180.187c-.664,1.047-.27,2.116-.066,3.181.263.655-.089,1.37.2,2.023l.532.458h-2.284a11.879,11.879,0,0,0,.143-5.648c.411-.8,1.053-.3,1.608-.283Q480.242,180.135,480,180.187Z" transform="translate(-395.064 -157.699)" fill="#e9493e"/>
      <path id="Path_278" data-name="Path 278" d="M310.488,327.105q.015-11.57.031-23.138c0-.407,0-.814,0-1.376a1.369,1.369,0,0,1,.218,1.034q.009,11.513,0,23.026c0,.364.121.765-.2,1.074Z" transform="translate(-303.565 -224.648)" fill="#00203b"/>
      <path id="Path_279" data-name="Path 279" d="M412.166,185.68a.633.633,0,0,1-.429-.4,7.567,7.567,0,0,1-.3-2.968,7.9,7.9,0,0,0-.164-2.321,1.172,1.172,0,0,1,1-.053c.458.331.256.82.292,1.249.1,1.25-.2,2.52.173,3.758l-.006-.013C412.981,185.513,413.072,185.972,412.166,185.68Z" transform="translate(-358.49 -157.758)" fill="#ea4435"/>
      <path id="Path_280" data-name="Path 280" d="M345.081,167.891c-.273-.479-1.451-.088-1.112-1.156a3.456,3.456,0,0,0,4.982-.718c.08-.126.147-.261.224-.389.133-.221.244-.524.569-.427.348.1.233.414.191.666a4.644,4.644,0,0,1-.527,1.814,8.266,8.266,0,0,0-.925.465l-.444-.007A26.694,26.694,0,0,0,345.081,167.891Z" transform="translate(-321.779 -149.761)" fill="#0e3f63"/>
      <path id="Path_281" data-name="Path 281" d="M471.772,162.331c1.078-.471,2.2-.137,3.308-.19a.477.477,0,0,1,.379.2,8.647,8.647,0,0,1,1.156,3.834h2.2c.092-.323-.276-.65.024-.949a2.051,2.051,0,0,0,1.353.714c.118.025.288.172.3.275.02.226-.174.3-.379.3-1.579,0-3.16,0-4.739,0-.136,0-.308-.022-.342-.216-.046-.255.143-.347.323-.365.918-.1.823-.606.6-1.271-.955-2.823-.206-2.254-3.166-2.322C472.449,162.33,472.11,162.333,471.772,162.331Z" transform="translate(-391.463 -148.068)" fill="#0d3d60"/>
      <path id="Path_282" data-name="Path 282" d="M402.63,182.475c.075-.889.547-1.85-.632-2.62h2.531c-.695,1.234-.655,5.23.139,6.039a1.358,1.358,0,0,1-1.171.02,31.441,31.441,0,0,1,.127-4.144C403.759,182.6,403.728,182.651,402.63,182.475Z" transform="translate(-353.437 -157.758)" fill="#e94d46"/>
      <path id="Path_283" data-name="Path 283" d="M360.669,146.234l-.254.009a.31.31,0,0,1-.1-.054c-.312-.378-1.24-.14-1.134-.671.138-.691.955-.342,1.465-.375a28.439,28.439,0,0,1,5.095.007c2.32.271,3.416,1.522,3.089,3.451a1.462,1.462,0,0,1-.2.391l-.021-.484a17.66,17.66,0,0,0-.671-1.821c-.167-.41-.577-.493-.909-.682a12.162,12.162,0,0,0-4.026-.37,22.772,22.772,0,0,0-2.833.1C360.549,145.688,360.71,145.851,360.669,146.234Z" transform="translate(-330.099 -138.779)" fill="#103f5f"/>
      <path id="Path_284" data-name="Path 284" d="M318.024,167.024a1.618,1.618,0,0,1-.8,1.392,8.062,8.062,0,0,1-6.3,1.572,3.648,3.648,0,0,1-2.823-1.627c2.847,1.865,5.7,2.073,8.533-.014A14.511,14.511,0,0,0,318.024,167.024Z" transform="translate(-302.267 -150.765)" fill="#104062"/>
      <path id="Path_285" data-name="Path 285" d="M426.208,184.967c-.018-1.164-.041-2.328-.049-3.493,0-.592.092-1.21-.57-1.63h2.683a1.615,1.615,0,0,0-.786,1.631c.04,1.238-.013,2.479-.028,3.719a.235.235,0,0,1-.3-.122,8.963,8.963,0,0,1-.176-2.7,4.762,4.762,0,0,0-.229-1.776c-.183,1.521.184,2.923-.238,4.282A.222.222,0,0,1,426.208,184.967Z" transform="translate(-366.294 -157.752)" fill="#e55147"/>
      <path id="Path_286" data-name="Path 286" d="M403.259,182.765c1.077.009.9-.583.727-1.319-.074-.318-.453-1,.013-1.053.685-.072.366.67.38,1.043.048,1.241.024,2.485.015,3.728,0,.363.1.766-.268,1.041l-.091.031-.09-.034c-.53-.337-.312-.879-.286-1.312a2.412,2.412,0,0,0-.438-1.636l0,.014a.412.412,0,0,1,.031-.5Z" transform="translate(-354.066 -158.048)" fill="#f14130"/>
      <path id="Path_287" data-name="Path 287" d="M336.8,156.79c.07.341-.714.466-.232.912.074.053.1.106.074.16s-.05.079-.075.079a1.482,1.482,0,0,1-.9.011c-.121-.155-.407-.232-.249-.52.946-.124,1.172-.719,1.161-1.59-.033-2.6-.015-5.2-.008-7.795a1.794,1.794,0,0,0-.48-1.447c1.186-.472.444.618.717.886.355,1.148.026,2.315.087,3.473.09,1.69-.089,3.388.1,5.078A1.181,1.181,0,0,1,336.8,156.79Z" transform="translate(-317.124 -139.571)" fill="#0e3f61"/>
      <path id="Path_288" data-name="Path 288" d="M320.573,307.708c.169-.351.494-.29.787-.29q6.383,0,12.766,0c.262,0,.533-.027.731.2l-12.356.073C321.858,307.7,321.216,307.7,320.573,307.708Z" transform="translate(-309.061 -227.277)" fill="#001733"/>
      <path id="Path_289" data-name="Path 289" d="M455.668,147.213c.772.371.668,1.157.7,1.771.088,1.508.031,3.025.028,4.538,0,.339.035.735-.387.845a.666.666,0,0,1-.746-.4c-.249-.486-.971-.681-.851-1.387l1.44,1.526C456.019,151.737,456.457,149.449,455.668,147.213Z" transform="translate(-381.998 -139.969)" fill="#0e3e60"/>
      <path id="Path_290" data-name="Path 290" d="M315.022,133.707c.953-.72,1.933.151,2.891-.072-.131-1.007-1.209-.968-1.757-1.53a.291.291,0,0,1,.452-.024,4.224,4.224,0,0,1,1.875,1.154c.157.139.386.287.262.552-.1.213-.316.135-.493.124Q316.637,133.811,315.022,133.707Z" transform="translate(-306.036 -131.67)" fill="#144162"/>
      <path id="Path_291" data-name="Path 291" d="M421.665,180.131c-.537.329-.354.9-.464,1.374-.254.993.041,2.017-.17,3.014a.17.17,0,0,1-.038.164c-.436.126-.266-.315-.422-.451-.13-.468.178-.88.174-1.332-.284-.82.149-1.709-.239-2.519l-.236-.2C420.713,179.563,421.182,179.637,421.665,180.131Z" transform="translate(-363.396 -157.695)" fill="#db4e44"/>
      <path id="Path_292" data-name="Path 292" d="M338,171.237V171l3.861,0a5.059,5.059,0,0,1,2.958.248Z" transform="translate(-318.558 -152.866)" fill="#113c5a"/>
      <path id="Path_293" data-name="Path 293" d="M417.29,189.61l.422.451c-.555,1.349-1.755,1.754-3.463,1.169.253-.336.669-.018.95-.238C416.194,190.98,417.094,190.829,417.29,189.61Z" transform="translate(-360.114 -163.075)" fill="#d56965"/>
      <path id="Path_294" data-name="Path 294" d="M402.855,186.687c.765.229.644.9.629,1.435a7.007,7.007,0,0,0,.094,1.513,1.536,1.536,0,0,1-1.1.023C403.479,188.754,402.87,187.694,402.855,186.687Z" transform="translate(-353.7 -161.481)" fill="#e94d46"/>
      <path id="Path_295" data-name="Path 295" d="M307.828,133.1c-.295.355-.856.464-.983,1.148h2.9l-3.787.3a2.712,2.712,0,0,1,1.567-1.488A.191.191,0,0,1,307.828,133.1Z" transform="translate(-301.098 -132.227)" fill="#144162"/>
      <path id="Path_296" data-name="Path 296" d="M309.7,132.168l-.3-.04a3.894,3.894,0,0,1,4.142-.425l-.452.024A6.135,6.135,0,0,0,309.7,132.168Z" transform="translate(-302.974 -131.292)" fill="#13466c"/>
      <path id="Path_297" data-name="Path 297" d="M326.406,146.221a1.5,1.5,0,0,1,1.275.781c.224.349.511.835,1.048.326.4.2.263.472.039.678a.479.479,0,0,1-.766-.112A13.1,13.1,0,0,0,326.406,146.221Z" transform="translate(-312.24 -139.428)" fill="#134162"/>
      <path id="Path_298" data-name="Path 298" d="M410.881,180a3.36,3.36,0,0,1,.227,1.86,18.188,18.188,0,0,0,.193,3.443c-.786-1.152-.311-2.459-.452-3.689-.056-.492.194-1.069-.38-1.423C410.458,179.8,410.646,179.849,410.881,180Z" transform="translate(-358.053 -157.776)" fill="#e5544e"/>
      <path id="Path_299" data-name="Path 299" d="M445.491,192.577c.635.437,1.339.156,2.011.195.5-.162,1.034.027,1.534-.141a.772.772,0,0,1,.728.177c-1.619.447-3.235.06-4.962.22C445.032,192.523,445.277,192.592,445.491,192.577Z" transform="translate(-376.765 -164.692)" fill="#ce6c77"/>
      <path id="Path_300" data-name="Path 300" d="M465.53,192.53c.548.472,1.192.166,1.792.223a7.259,7.259,0,0,1,1.561-.08c.326-.087.651-.171.935.107-1.516.456-3.067.089-4.6.193-.15.01-.337-.069-.273-.238C465.043,192.482,465.321,192.564,465.53,192.53Z" transform="translate(-387.737 -164.666)" fill="#cf707a"/>
      <path id="Path_301" data-name="Path 301" d="M400.139,185.534l-.031.5c-.888.108-1.811-.209-2.672.223q.006-.4.013-.79A9.67,9.67,0,0,0,400.139,185.534Z" transform="translate(-350.951 -160.818)" fill="#d05452"/>
      <path id="Path_302" data-name="Path 302" d="M378.191,158.937a12.578,12.578,0,0,0-2.38-1.538c-.363-.122-.549-.412-.1-.717-.129.567.378.427.627.54C377.154,157.588,377.95,157.958,378.191,158.937Z" transform="translate(-338.968 -145.129)" fill="#103f5f"/>
      <path id="Path_303" data-name="Path 303" d="M381.006,192.632c.636.433,1.339.161,2.013.188.58-.217,1.2.034,1.786-.167a.716.716,0,0,1,.74.221c-1.537.446-3.108.092-4.661.188a.219.219,0,0,1-.251-.277C380.683,192.586,380.868,192.652,381.006,192.632Z" transform="translate(-341.789 -164.721)" fill="#c8a6a8"/>
      <path id="Path_304" data-name="Path 304" d="M433.575,192.456c.627.55,1.367.179,2.053.253a16.557,16.557,0,0,1,1.849-.144.483.483,0,0,1,.278.243,29.28,29.28,0,0,1-4.312.126c-.173.009-.448.015-.419-.217C433.058,192.455,433.372,192.513,433.575,192.456Z" transform="translate(-370.345 -164.626)" fill="#d06e70"/>
      <path id="Path_305" data-name="Path 305" d="M413.881,184.935c-.5-.355-.242-.884-.291-1.334-.13-1.208.227-2.445-.218-3.635.268-.069.605-.354.664.217C413.479,181.751,413.847,183.348,413.881,184.935Z" transform="translate(-359.636 -157.747)" fill="#e5544e"/>
      <path id="Path_306" data-name="Path 306" d="M467.283,179.819c-.541.043-1.13-.247-1.606.236-.185-.02-.392-.019-.461-.239a.159.159,0,0,1,.161-.224c1.465.106,2.957-.307,4.4.218a.892.892,0,0,1-.936.116A6.231,6.231,0,0,1,467.283,179.819Z" transform="translate(-387.885 -157.585)" fill="#c28686"/>
      <path id="Path_307" data-name="Path 307" d="M350.778,157.136c.3.147.568.351.539-.276-.049-1.048-.012-2.1-.011-3.151.487,1.235.062,2.522.2,3.778.007.063-.215.22-.326.216C350.837,157.691,350.825,157.39,350.778,157.136Z" transform="translate(-325.523 -143.509)" fill="#35576e"/>
      <path id="Path_308" data-name="Path 308" d="M469.415,183.142a2.642,2.642,0,0,1,.043-2.494,11.188,11.188,0,0,0-.074,1.241c.016.345-.218.846.267.991s1.065.2,1.385-.407c.45.023.307.285.212.528C470.677,183.561,470.033,183.191,469.415,183.142Z" transform="translate(-390.02 -158.19)" fill="#df5c54"/>
      <path id="Path_309" data-name="Path 309" d="M321.658,418.311a8.448,8.448,0,0,1,.109-4.518Q321.713,416.052,321.658,418.311Z" transform="translate(-309.514 -285.252)" fill="#001935"/>
      <path id="Path_310" data-name="Path 310" d="M479.853,180.045a1.264,1.264,0,0,0-1.614.058c-.123-.064-.309-.1-.356-.2-.088-.184.1-.274.24-.263,1.026.079,2.082-.317,3.081.187-.3.037-.64-.105-.881.195A.328.328,0,0,1,479.853,180.045Z" transform="translate(-394.781 -157.601)" fill="#d9645d"/>
      <path id="Path_311" data-name="Path 311" d="M472.918,150.291l-.3-.029,1.184-3.206C473.9,148.243,473.181,149.2,472.918,150.291Z" transform="translate(-391.926 -139.883)" fill="#1a4461"/>
      <path id="Path_312" data-name="Path 312" d="M390.566,191.378l-.684-.046c-.149-.25.121-.324.2-.479l.743-.966A1.774,1.774,0,0,1,390.566,191.378Z" transform="translate(-346.81 -163.225)" fill="#e44f43"/>
      <path id="Path_313" data-name="Path 313" d="M427.587,192.52c.137.02.321-.036.37.155s-.107.253-.255.255c-.706.008-1.412.01-2.118,0-.19,0-.4-.091-.25-.33.053-.086.273-.068.417-.1A7.5,7.5,0,0,1,427.587,192.52Z" transform="translate(-366.127 -164.624)" fill="#c7727b"/>
      <path id="Path_314" data-name="Path 314" d="M346.469,156.234c-1.067.838-2.461.707-2.9-.274C344.465,156.794,345.484,156.338,346.469,156.234Z" transform="translate(-321.594 -144.736)" fill="#1c4a6d"/>
      <path id="Path_315" data-name="Path 315" d="M393.469,192.593a1.774,1.774,0,0,0,1.824-.042c.174.024.4-.042.488.159s-.115.257-.241.259a9.781,9.781,0,0,1-2.2-.032C392.848,192.834,393.178,192.633,393.469,192.593Z" transform="translate(-348.581 -164.678)" fill="#ce6a71"/>
      <path id="Path_316" data-name="Path 316" d="M412.045,180.013c-.157-.272-.415-.232-.665-.217l-.908,0a.365.365,0,0,0-.412.19c-.227-.045-.5-.311-.225-.355a6.726,6.726,0,0,1,2.427,0C412.674,179.722,412.287,179.957,412.045,180.013Z" transform="translate(-357.644 -157.576)" fill="#ca9491"/>
      <path id="Path_317" data-name="Path 317" d="M441.192,191.091a3,3,0,0,0,1.306-1.211,1.338,1.338,0,0,1-.291,1.524l-.054-.077C441.886,191.034,441.451,191.418,441.192,191.091Z" transform="translate(-374.797 -163.222)" fill="#d66663"/>
      <path id="Path_318" data-name="Path 318" d="M428.146,191.784a1.73,1.73,0,0,1-1.837-.021l.291-.661h.187a1.1,1.1,0,0,0,.894.226h.169Z" transform="translate(-366.686 -163.888)" fill="#e14e49"/>
      <path id="Path_319" data-name="Path 319" d="M421.1,180.016a.993.993,0,0,0-1.395.052c-.183-.033-.393-.044-.459-.256s.1-.248.254-.248a6.044,6.044,0,0,1,1.781.062C421.716,179.768,421.377,179.97,421.1,180.016Z" transform="translate(-362.828 -157.581)" fill="#d58e86"/>
      <path id="Path_320" data-name="Path 320" d="M474.512,191.661l-.842-.024q-.22-.085-.046-.244a2.066,2.066,0,0,0,.908-.916C475.058,190.988,474.507,191.3,474.512,191.661Z" transform="translate(-392.431 -163.547)" fill="#dd5148"/>
      <path id="Path_321" data-name="Path 321" d="M343.544,159.038a.487.487,0,0,1,.215-.567,7.37,7.37,0,0,1,2.466.012l.207.319C345.458,158.738,344.453,158.3,343.544,159.038Z" transform="translate(-321.57 -146.051)" fill="#1c4a6d"/>
      <path id="Path_322" data-name="Path 322" d="M473.156,180.141l.907,0c.034.356.068.712.114,1.206l-1.027-.959q-.111-.084-.071-.164C473.1,180.168,473.13,180.141,473.156,180.141Z" transform="translate(-392.169 -157.912)" fill="#da5551"/>
      <path id="Path_323" data-name="Path 323" d="M398.838,169.458c.011.1.022.206.033.309a3.644,3.644,0,0,1-2.942-.045A4.917,4.917,0,0,0,398.838,169.458Z" transform="translate(-350.129 -152.092)" fill="#164362"/>
      <path id="Path_324" data-name="Path 324" d="M481.976,189.539c-.413-.641-.074-1.354-.2-2.023.345-.218.649-.258.843.192-.414-.026-.641.132-.627.583C482.008,188.706,481.984,189.123,481.976,189.539Z" transform="translate(-396.909 -161.847)" fill="#f9ebea"/>
      <path id="Path_325" data-name="Path 325" d="M469.765,185.871a3.622,3.622,0,0,0,1.782-.215c.173.345.4.7-.185.889a1.772,1.772,0,0,0-1.57-.382C469.784,186.066,469.774,185.968,469.765,185.871Z" transform="translate(-390.369 -160.92)" fill="#cc4f4a"/>
      <path id="Path_326" data-name="Path 326" d="M326.349,142.974a3.417,3.417,0,0,1-1.78-1.432A3.608,3.608,0,0,1,326.349,142.974Z" transform="translate(-311.239 -136.878)" fill="#134162"/>
      <path id="Path_327" data-name="Path 327" d="M421.863,186.633a7.665,7.665,0,0,1,.17-3.014A7.386,7.386,0,0,1,421.863,186.633Z" transform="translate(-364.227 -159.809)" fill="#e36f69"/>
      <path id="Path_328" data-name="Path 328" d="M387.71,191.969l-.2.479-1.842-.008-.183-.506A2.7,2.7,0,0,0,387.71,191.969Z" transform="translate(-344.438 -164.341)" fill="#e35e59"/>
      <path id="Path_329" data-name="Path 329" d="M473.276,185.857c.319-.243.181-.581.185-.889a.42.42,0,0,0-.162-.454c.572-.369.354.21.364.35a2.336,2.336,0,0,1-.068,1.211C473.4,186.423,473.292,186.087,473.276,185.857Z" transform="translate(-392.283 -160.231)" fill="#d17378"/>
      <path id="Path_330" data-name="Path 330" d="M454.911,191.854l-.612-.019c-.171-.245.112-.319.178-.475a.975.975,0,0,1,.65-.534C455.389,191.247,454.93,191.5,454.911,191.854Z" transform="translate(-381.911 -163.737)" fill="#de5248"/>
      <path id="Path_331" data-name="Path 331" d="M375.961,170.265c.465-.365.806-1,1.565-.72A1.887,1.887,0,0,1,375.961,170.265Z" transform="translate(-339.247 -152.102)" fill="#113f60"/>
      <path id="Path_332" data-name="Path 332" d="M420.79,181.147c.564.794.2,1.675.239,2.519C420.726,182.847,421.03,181.971,420.79,181.147Z" transform="translate(-363.678 -158.462)" fill="#e36f69"/>
      <path id="Path_333" data-name="Path 333" d="M447.925,158.657c.337.328.847.564.639,1.186a3.6,3.6,0,0,1-.963-1.15Z" transform="translate(-378.29 -146.205)" fill="#0e3e60"/>
      <path id="Path_334" data-name="Path 334" d="M450.73,154.759c-.4-.215-.909-.311-.929-.911.006-.089.013-.179.02-.269A2.424,2.424,0,0,1,450.73,154.759Z" transform="translate(-379.489 -143.439)" fill="#0e3e60"/>
      <path id="Path_335" data-name="Path 335" d="M449.7,161.141l.278-.045c.25-.119.366.028.453.23l.182.962A3.034,3.034,0,0,1,449.7,161.141Z" transform="translate(-379.434 -147.512)" fill="#0e3e60"/>
      <path id="Path_336" data-name="Path 336" d="M414.649,191.759c-.254.33-.635.152-.95.237a.517.517,0,0,1-.46-.232c.643.093.6-.33.563-.748C414.19,191.142,414.15,191.758,414.649,191.759Z" transform="translate(-359.563 -163.841)" fill="#e14e50"/>
      <path id="Path_337" data-name="Path 337" d="M439.86,192.46c.283.23.784-.424.962.236l-2.074-.022a1.9,1.9,0,0,0,.049-.214Z" transform="translate(-373.465 -164.59)" fill="#e16561"/>
      <path id="Path_338" data-name="Path 338" d="M471.361,155.47a2.265,2.265,0,0,1-.7,1.889A6.413,6.413,0,0,1,471.361,155.47Z" transform="translate(-390.855 -144.469)" fill="#1a4461"/>
      <path id="Path_339" data-name="Path 339" d="M471.6,192.2c.016.081.031.163.046.244l-1.654,0-.159-.482A3.571,3.571,0,0,0,471.6,192.2Z" transform="translate(-390.406 -164.356)" fill="#df645c"/>
      <path id="Path_340" data-name="Path 340" d="M452.565,192l-.178.476-1.65-.018a1.414,1.414,0,0,0,.035-.2A4.729,4.729,0,0,0,452.565,192Z" transform="translate(-379.999 -164.377)" fill="#df6060"/>
      <path id="Path_341" data-name="Path 341" d="M404.46,164.492c.057.679.023,1.318-.728,1.638Q404.1,165.311,404.46,164.492Z" transform="translate(-354.382 -149.385)" fill="#164362"/>
      <path id="Path_342" data-name="Path 342" d="M334.675,170.536l.249.52c-.336.048-.807.321-.9-.2C333.947,170.461,334.393,170.531,334.675,170.536Z" transform="translate(-316.385 -152.675)" fill="#113c5a"/>
      <path id="Path_343" data-name="Path 343" d="M353.962,170.808a5.278,5.278,0,0,1,.715-.7c.228-.155.157.132.21.231C354.837,171.013,354.4,170.905,353.962,170.808Z" transform="translate(-327.258 -152.425)" fill="#113c5a"/>
      <path id="Path_344" data-name="Path 344" d="M452.756,157.569c-.128-.314-.488-.512-.457-.907.544.164.691.689.981,1.083Z" transform="translate(-380.85 -145.118)" fill="#0e3e60"/>
      <path id="Path_345" data-name="Path 345" d="M471.36,180.146l-.007.243-1.555.007c-.009-.082-.018-.163-.026-.245Z" transform="translate(-390.373 -157.917)" fill="#c95756"/>
      <path id="Path_346" data-name="Path 346" d="M421.938,144.952c-.445-.053-.651.515-1.11.426C421.207,145.259,421.268,144.312,421.938,144.952Z" transform="translate(-363.699 -138.616)" fill="#375870"/>
      <path id="Path_347" data-name="Path 347" d="M395.206,172.192l1.753,0A2.669,2.669,0,0,1,395.206,172.192Z" transform="translate(-349.736 -153.581)" fill="#164362"/>
      <path id="Path_348" data-name="Path 348" d="M451.673,163.728a.915.915,0,0,1,.743.871A1.682,1.682,0,0,1,451.673,163.728Z" transform="translate(-380.509 -148.969)" fill="#0e3e60"/>
      <path id="Path_349" data-name="Path 349" d="M486.792,185.356a1.156,1.156,0,0,1,.662-.741A.844.844,0,0,1,486.792,185.356Z" transform="translate(-399.649 -160.352)" fill="#e54f44"/>
      <path id="Path_350" data-name="Path 350" d="M343.726,167.146c-.441-.342-.211-.81-.23-1.231Q343.61,166.53,343.726,167.146Z" transform="translate(-321.53 -150.161)" fill="#0e3f63"/>
      <path id="Path_351" data-name="Path 351" d="M330.6,166.4a.935.935,0,0,1-.709.169C330.044,166.178,330.256,166.02,330.6,166.4Z" transform="translate(-314.138 -150.307)" fill="#104062"/>
      <path id="Path_352" data-name="Path 352" d="M392.324,171.633c.4.019.85-.168,1.18.232A1.6,1.6,0,0,1,392.324,171.633Z" transform="translate(-348.165 -153.263)" fill="#164362"/>
      <path id="Path_353" data-name="Path 353" d="M322.836,144.221c.436-.051.84-.042.971.5Z" transform="translate(-310.295 -138.327)" fill="#134162"/>
      <path id="Path_354" data-name="Path 354" d="M417.141,251.954a10.812,10.812,0,0,0-5.527-9.523q-15.114-8.854-30.238-17.692c-1.714-1-1.8-1.24-1.079-3.132a5.593,5.593,0,0,1,8.252-3.017Q412.493,232.562,436.4,246.6a6.23,6.23,0,0,1-.222,10.846q-14.62,8.577-29.255,17.129c-6.1,3.571-12.189,7.162-18.3,10.7a5.742,5.742,0,0,1-8.659-4.108,1.344,1.344,0,0,1,.758-1.638c10.2-5.925,20.356-11.913,30.549-17.841A11.084,11.084,0,0,0,417.141,251.954Z" transform="translate(-341.377 -178.414)" fill="#f3333e"/>
      <path id="Path_355" data-name="Path 355" d="M331.64,276.2c-3.4,0-6.807-.023-10.21.018-.756.009-.98-.216-.933-.951a20.554,20.554,0,0,0,0-2.834c-.059-.789.176-1.015.985-1.009,4.992.039,9.983.02,14.974.02,1.777,0,3.556.031,5.332-.016.689-.018.9.236.983.885.45,3.708.31,3.888-3.3,3.888Z" transform="translate(-309.015 -207.662)" fill="#fefefe"/>
      <path id="Path_356" data-name="Path 356" d="M339.9,258c-6.444,0-12.573-.006-18.7.011-.56,0-.733-.188-.686-.718a10.569,10.569,0,0,0,.005-1.249c-.01-.348.063-.58.488-.569,4.762.122,9.534-.278,14.285.216A8.227,8.227,0,0,1,339.9,258Z" transform="translate(-309.027 -198.949)" fill="#fdfdfd"/>
      <path id="Path_357" data-name="Path 357" d="M339.8,292.253a9.021,9.021,0,0,1-6.176,2.511c-4.12.059-8.241,0-12.361.035-.763.007-1-.328-.8-.926.181-.547-.691-1.608.664-1.612C327.248,292.243,333.369,292.253,339.8,292.253Z" transform="translate(-308.94 -219.012)" fill="#fdfdfd"/>
      <path id="Path_358" data-name="Path 358" d="M408.906,400l2.414,5.737h-4.795Z" transform="translate(-355.904 -277.736)" fill="#fdfcfc"/>
      <path id="Path_359" data-name="Path 359" d="M321.875,398.054a8.647,8.647,0,0,1,4.537.1c1.151.346,1.256,1.369,1.162,2.406a1.786,1.786,0,0,1-1.734,1.754,18.676,18.676,0,0,1-3.937,0A12.783,12.783,0,0,1,321.875,398.054Z" transform="translate(-309.681 -276.535)" fill="#fdfdfd"/>
      <path id="Path_360" data-name="Path 360" d="M321.722,398.3q.013,2.131.028,4.262c-.591-1.4-.177-2.854-.217-4.282,0-.011.061-.036.091-.032A.306.306,0,0,1,321.722,398.3Z" transform="translate(-309.528 -276.778)" fill="#001934"/>
      <path id="Path_361" data-name="Path 361" d="M353.222,415.627c.392.167,1.047-.3,1.255.29a1.638,1.638,0,0,1-.479,1.662,2.111,2.111,0,0,1-1.945.666,1.285,1.285,0,0,1-1.264-1.216c-.07-.83.493-1.128,1.157-1.277A10.052,10.052,0,0,1,353.222,415.627Z" transform="translate(-325.526 -286.241)" fill="#fafbfb"/>
      <path id="Path_362" data-name="Path 362" d="M479.678,409.04c-.377,0-.756.023-1.131-.007-.357-.028-.856.2-1.039-.165s.122-.784.348-1.133a2.3,2.3,0,0,1,2.465-.992,1.885,1.885,0,0,1,1.574,1.437c.188.581.113.939-.635.868C480.737,409,480.2,409.04,479.678,409.04Z" transform="translate(-394.558 -281.39)" fill="#fdfcfb"/>
      <path id="Path_363" data-name="Path 363" d="M418.07,151.379a25.01,25.01,0,0,1,1.283,3.655c.1.306-.034.541-.376.537-.673-.007-1.489.279-1.979-.128-.53-.44.112-1.089.257-1.634C417.455,153.049,417.75,152.315,418.07,151.379Z" transform="translate(-361.499 -142.239)" fill="#f6f8f8"/>
      <path id="Path_364" data-name="Path 364" d="M472.369,155.465l.661-2.225q.21-.594.42-1.188c.208-.441.477-.641.676-.03.333,1.024.787,2.006,1.035,3.06.1.555-.107.931-.686.858-.713-.09-1.584.44-2.113-.475Z" transform="translate(-391.785 -142.381)" fill="#f6f7f8"/>
      <path id="Path_365" data-name="Path 365" d="M472.333,158.471c.755.506,1.6.239,2.393.221.527-.012.235-.514.274-.808a.676.676,0,0,1,.02-.729c.412.349.077.968.477,1.326a.217.217,0,0,1-.007.2c-.632.9-1.573.4-2.377.51C472.6,159.265,472.2,159.132,472.333,158.471Z" transform="translate(-391.755 -145.387)" fill="#0d3d60"/>
      <path id="Path_366" data-name="Path 366" d="M476.352,153.938l-.02.728q-.476-1.319-.952-2.639c-.125-.347-.264-.646-.628-.185.011-.222-.025-.489.249-.569.348-.1.468.193.558.431C475.837,152.443,476.09,153.192,476.352,153.938Z" transform="translate(-393.087 -142.169)" fill="#1a4461"/>
      <path id="Path_367" data-name="Path 367" d="M338.51,157.992q0-4.652.007-9.3a2.29,2.29,0,0,1,.3,1.554,33.722,33.722,0,0,0,.076,6.7C338.962,157.394,338.974,157.766,338.51,157.992Z" transform="translate(-318.837 -140.772)" fill="#063758"/>
      <path id="Path_368" data-name="Path 368" d="M346.5,158.318l-2.466-.012A3.259,3.259,0,0,1,346.5,158.318Z" transform="translate(-321.849 -145.885)" fill="#053357"/>
      <path id="Path_369" data-name="Path 369" d="M450.764,160.021l-.453-.23a1.3,1.3,0,0,1,1.362-1.132C451.7,159.33,451.186,159.646,450.764,160.021Z" transform="translate(-379.767 -146.206)" fill="#023b66"/>
      <path id="Path_370" data-name="Path 370" d="M361.918,146.588c-.023-.308-.584-.354-.424-.655.123-.229.505-.256.813-.251.627.01,1.254,0,1.882.006a1.109,1.109,0,0,1,.185.268,1.743,1.743,0,0,1,.053.648,10.719,10.719,0,0,1-.056,1.591,4.677,4.677,0,0,0-.053,1.989c.044.09.084.182.128.271.441.761,1.233.142,1.786.455-.057.49-.428.426-.766.452-.358.027-.77-.144-1.042.249a20.012,20.012,0,0,1-.014,4.556c.336.972-.085,1.22-1,1.109a14.533,14.533,0,0,0-1.708-.012c.083-.485.159-.926.235-1.367a83.654,83.654,0,0,0-.013-9.084Z" transform="translate(-331.347 -139.134)" fill="#043b62"/>
      <path id="Path_371" data-name="Path 371" d="M367.718,163.207a13.6,13.6,0,0,1,.014-4.556,5.2,5.2,0,0,1,2.447.218,3.038,3.038,0,0,1,1.158,2.769,2.2,2.2,0,0,1-1.27,2.084A2.029,2.029,0,0,1,367.718,163.207Z" transform="translate(-334.653 -146.173)" fill="#fcfcfc"/>
      <path id="Path_372" data-name="Path 372" d="M367.491,146.811l-.041-.783a3.418,3.418,0,0,1,2.953.455l.681,1.363a.311.311,0,0,1,0,.454c.123,1.291-.163,2.344-1.591,2.732-.745.148-1.611.794-2.01-.486a1.865,1.865,0,0,1,.891-.039,1.749,1.749,0,0,0,1.881-.954,2.039,2.039,0,0,0-.312-2.23,1.691,1.691,0,0,0-2.121-.556A.684.684,0,0,1,367.491,146.811Z" transform="translate(-334.609 -139.255)" fill="#103f5f"/>
      <path id="Path_373" data-name="Path 373" d="M375.427,149.687v-.454c.062-.27-.161-.7.234-.775s.389.341.452.635a2.725,2.725,0,0,1-.107,1.787C375.387,150.677,375.89,149.935,375.427,149.687Z" transform="translate(-338.952 -140.643)" fill="#043c64"/>
      <path id="Path_374" data-name="Path 374" d="M370.4,146.356a7.225,7.225,0,0,0-2.953-.455v-.218a13.738,13.738,0,0,1,3.371.21.9.9,0,0,1,.718.463Z" transform="translate(-334.609 -139.128)" fill="#043c64"/>
      <path id="Path_375" data-name="Path 375" d="M378,148.672c.977.329.589,1.162.672,1.821-.084.071-.157.172-.253.205-.252.089-.23-.171-.183-.232C378.763,149.782,376.9,149.417,378,148.672Z" transform="translate(-340.166 -140.764)" fill="#043c64"/>
      <path id="Path_376" data-name="Path 376" d="M376.083,155.539c-.178-.108-.426-.178-.325-.462a.28.28,0,0,1,.259-.094c.277.149.079.37.055.565Z" transform="translate(-339.124 -144.199)" fill="#043c64"/>
      <path id="Path_377" data-name="Path 377" d="M481.989,180.59l.47-.022a1.417,1.417,0,0,1,1.06,1.622,1.079,1.079,0,0,1-1.165,1.108c-.8-.031-.521-.675-.544-1.1-.028-.519.027-1.042.047-1.563A.128.128,0,0,0,481.989,180.59Z" transform="translate(-396.917 -158.147)" fill="#f9ebea"/>
      <path id="Path_378" data-name="Path 378" d="M362.484,148.168a1.5,1.5,0,0,1,.2.5q.02,4.041,0,8.082a1.571,1.571,0,0,1-.192.5Q362.491,152.71,362.484,148.168Z" transform="translate(-331.902 -140.489)" fill="#103f5f"/>
      <path id="Path_379" data-name="Path 379" d="M428.169,185.381c-.115.261-.294.471-.6.416-.362-.065-.272-.392-.3-.642q0-2.193-.008-4.385c0-.221-.245-.552.23-.58.34-.02.4.238.511.49a3.867,3.867,0,0,1,.156,1.553C428.175,183.282,428.169,184.332,428.169,185.381Z" transform="translate(-367.175 -157.94)" fill="#f24137"/>
      <path id="Path_380" data-name="Path 380" d="M367.322,147.264c.65-.834,1.427-.514,2.145-.173a2.147,2.147,0,0,1,1.091,2.307,1.762,1.762,0,0,1-1.308,1.794,1.955,1.955,0,0,1-1.935-.193l0,.015a3.942,3.942,0,0,1-.024-2.264C367.3,148.254,367.313,147.759,367.322,147.264Z" transform="translate(-334.44 -139.708)" fill="#fafbfb"/>
      <path id="Path_381" data-name="Path 381" d="M367.137,151.162q.012,1.131.024,2.264A2.3,2.3,0,0,1,367.137,151.162Z" transform="translate(-334.283 -142.121)" fill="#103f5f"/>
    </g>
  </g>
</svg>
