<svg xmlns="http://www.w3.org/2000/svg" viewBox="0 0 493.64 500.47"><defs><style>.cls-1{fill:#fff;}.cls-2{fill:#f5333f;}.cls-3{fill:#3c293e;}</style></defs><g id="Layer_2" data-name="Layer 2"><g id="Layer_1-2" data-name="Layer 1"><path class="cls-1" d="M492,175.06c-3.52-14.44-12-25.26-24.8-32.77q-69.74-40.71-139.4-81.52-45.3-26.51-90.62-53C230,3.49,222.28.67,213.85.26a50.89,50.89,0,0,0-51.17,35.59c-.4,1.22-.8,2.43-1.19,3.63A9.43,9.43,0,0,1,158,37.81C140.5,27.59,123,17.29,105.45,7.1,93.29,0,80.29-2,66.82,2.16,45.6,8.77,33.56,23.55,30,45.33a39.25,39.25,0,0,0-.35,7.27,11.08,11.08,0,0,0,11,11.24,11.29,11.29,0,0,0,11.7-11,42.89,42.89,0,0,1,.83-7.58c3.4-15,18-24.72,32.6-21.7a31.8,31.8,0,0,1,9.67,4.12q71.1,41.61,142.23,83.2,43.76,25.57,87.48,51.17c11.86,7,17.32,19.56,14.34,33-1.95,8.84-7.09,15.18-14.87,19.73q-100.87,58.9-201.72,117.94c-9.75,5.72-19.45,11.51-29.28,17.07s-19.63,5-28.85-1.4c-8.38-5.83-12.34-14.18-12.36-24.32-.07-21,0-42.07,0-63.11q0-18.24,0-36.48c0-2.81.05-2.83,2.75-2.89.84,0,1.7,0,2.56,0,19.1,0,38.2,0,57.3,0a65,65,0,0,0,9.47-.53c20.93-3.14,37.18-13.62,48.45-31.56a4.91,4.91,0,0,1,4.94-2.64q12.39.19,24.82,0c6.72-.1,11.86-5.16,11.7-11.47a11.42,11.42,0,0,0-11.82-11.32c-5.47.15-11,.05-16.42,0-1.19,0-2.45.31-3.72-.48,0-3.55.68-7.16.53-10.81-.1-2.67-.12-5.33-.35-8-.38-4.48-.73-3.75,3.67-3.8,4.86,0,9.73,0,14.59,0,.86,0,1.72,0,2.56,0a11.39,11.39,0,0,0,10.33-15,11.21,11.21,0,0,0-10.84-7.69c-8.15-.08-16.31-.13-24.46,0-2.71.07-4.23-.71-5.78-3.1-13.37-20.57-32.44-31.41-57-31.71S66.75,83.4,42.3,83.4a16.1,16.1,0,0,0-4,.25C33,85,29.64,89.17,29.54,95.15c-.11,6.81,0,13.62-.05,20.43,0,2.57-.08,2.62-2.64,2.64-4.74,0-9.48,0-14.23,0a14.6,14.6,0,0,0-4.69.51A11.52,11.52,0,0,0,.1,130.94a11.31,11.31,0,0,0,10.84,10c5.24.16,10.47,0,15.69.05,2.81,0,2.86,0,2.86,2.76q.06,8.75,0,17.5c0,2.79,0,2.82-2.82,2.84-5.36,0-10.71-.12-16.06.1A11.11,11.11,0,0,0,.06,174.43a11.46,11.46,0,0,0,8.2,11.92,16.22,16.22,0,0,0,4.69.54c4.88,0,9.74,0,14.61,0,1.37,0,2.07.42,2,1.86-.05.61,0,1.23,0,1.82q0,25.73.1,51.44,0,40.5,0,81a62.12,62.12,0,0,0,.76,10.53c5.81,34.55,44.49,54.34,75.94,35.38,16.85-10.17,34-19.92,51-29.83a14.13,14.13,0,0,1,4.28-2.12,57.72,57.72,0,0,0,5.12,13c13.5,24.16,44,34.17,69.24,19.48q19.53-11.4,39-22.82,96-56.11,192-112.19C488.06,222.1,497.73,198.46,492,175.06ZM52.45,107.87c0-1.23.52-1.76,1.75-1.7.72,0,1.45,0,2.18,0,19.69,0,39.39,0,59.09,0a43.74,43.74,0,0,1,28.25,10c.5.41,1.34.66,1.13,2H56.48c-4.55,0-4,.46-4-4.17C52.43,112,52.48,109.94,52.45,107.87Zm0,34.61c0-1.09.51-1.52,1.55-1.49.73,0,1.45,0,2.18,0h99.21c3.93,0,4,0,4.34,3.9a81.83,81.83,0,0,1,0,15.65c-.34,3.55-.42,3.55-4,3.57H56.51l-2.56,0c-1.08,0-1.5-.53-1.5-1.57Q52.47,152.49,52.45,142.48Zm1.94,44.4c.37,0,.73,0,1.1,0h87.6c.58,0,1.16.05,2.65.12a44.61,44.61,0,0,1-21.15,10.9,41.88,41.88,0,0,1-8.71.83H56c-.61,0-1.22,0-1.83,0-1.18.07-1.79-.33-1.75-1.64,0-2.81.06-5.6,0-8.39C52.4,187.22,53.06,186.76,54.39,186.88Z"/><path class="cls-1" d="M99.08,426.06c-1.28-9.17-6.25-15.34-15.21-18.08a32.78,32.78,0,0,0-9.71-1.4c-8.4,0-16.79,0-25.18,0-6.85,0-9.24,2.32-9.44,9.09,0,.73,0,1.45,0,2.18v25.89c0,9.11,0,18.23,0,27.35a21.48,21.48,0,0,0,.52,5.06,6.45,6.45,0,0,0,3.76,4.62c6.1,2.8,11.82-.61,12.21-7.28.07-1.21,0-2.43,0-3.65,0-4.61.06-9.24,0-13.85,0-1.6.55-2.08,2.1-2.07,5.11.09,10.23,0,15.33.05a40.1,40.1,0,0,0,8-.77c9.5-1.87,15.78-8.2,17.5-17.7A30.57,30.57,0,0,0,99.08,426.06ZM74.69,440.91c-5.69.89-11.42.23-17.12.42-1.39,0-1.52-.86-1.52-1.94q0-4.72,0-9.47c0-2.9,0-5.83,0-8.74,0-1.2.38-1.77,1.65-1.75,5.47.1,11-.13,16.41.25,6.1.45,9.42,4.3,9.53,10.33S80.67,440,74.69,440.91Z"/><path class="cls-2" d="M289.86,472.64c-.35-1-.83-2-1.27-3q-13-28.33-26-56.64a21.7,21.7,0,0,0-1.38-2.56c-3.91-6.18-11.94-6.35-16.09-.32a29.19,29.19,0,0,0-2.2,4.18q-12.81,28-25.58,56a16.44,16.44,0,0,0-1.25,3.41c-.88,4.31,1.47,7.41,5.85,7.86,3.63.38,6.52-.83,8.18-4.18s3.19-6.82,4.61-10.31a3.27,3.27,0,0,1,3.47-2.45q14.79.13,29.57,0a3.29,3.29,0,0,1,3.56,2.33c1.3,3.28,2.74,6.5,4.28,9.67s4.11,5,7.27,5C288.77,481.73,291.59,477.81,289.86,472.64Zm-48.45-21c3.79-9.1,7.45-17.91,11.14-26.72l.81,0c3.72,8.79,7.45,17.56,11.33,26.7Z"/><path class="cls-1" d="M152.38,450.84a38.49,38.49,0,0,0-.53-6.52c-1.27-8-5.73-13.21-13.66-15.21-9.45-2.37-18.56-.94-27.48,2.53a7,7,0,0,0-2.12,1.37,6.42,6.42,0,0,0-1.15,7.7c1.33,2.32,3.62,3.06,6.66,2.1,1.5-.48,3-1.12,4.46-1.58a28.38,28.38,0,0,1,11.86-1.33c4.5.6,6.4,2.65,6.69,7.16.17,2.59.14,2.63-2.43,2.73-4,.18-8,.29-12,.54a36.54,36.54,0,0,0-11.37,2.35c-3.7,1.47-6.46,4-7.4,7.95a15.93,15.93,0,0,0,2.83,14.09c5.93,7.73,23.11,11,30.2-.15.86.74.76,1.54.94,2.22A6.16,6.16,0,0,0,143,481.4c5.22,1.12,8.89-1.56,9.37-6.86.08-.84,0-1.7,0-2.56C152.38,464.94,152.35,457.9,152.38,450.84Zm-25.64,20.21c-2.35-.08-4.6-.41-6.32-2.25a5.64,5.64,0,0,1,2.2-9.4c4.3-1.5,8.83-1.17,13.3-1.17,1.19,0,1.21.83,1.24,1.73A10.49,10.49,0,0,1,126.74,471.05Z"/><path class="cls-2" d="M425.8,458.35c6.73,0,7.52-.88,7-7.66-.81-11.12-7.55-19.54-17.7-21.89a29.15,29.15,0,0,0-13.71.1C389.81,431.74,382.26,441.38,382,454c-.24,10.77,3.5,19.73,13.69,24.55,10.48,5,21.2,4.45,31.73-.33a8.79,8.79,0,0,0,2.92-2.11,6.08,6.08,0,0,0,.67-7.42c-1.44-2.17-3.82-2.76-6.81-1.64-.91.33-1.77.79-2.7,1.11-4.66,1.6-9.38,2.41-14.31,1.34-6-1.31-8.82-4.42-9.73-11.12Zm-16.14-19.68a9.82,9.82,0,0,1,10,9.56c.08,1.11-.05,1.95-1.42,1.95q-10.31,0-20.64,0C398.16,442.7,402.77,438.43,409.66,438.67Z"/><path class="cls-1" d="M185.84,461.53c1.25-3,2.19-5.17,3.1-7.39,2.51-6.18,5-12.38,7.51-18.55a25.31,25.31,0,0,1,1.92-3.91,8.26,8.26,0,0,1,10-2.91c2.63,1.2,4,4.47,3.12,7.79a25.74,25.74,0,0,1-1.46,3.73q-11.66,26.46-23.36,52.92c-.49,1.1-1,2.19-1.61,3.25a7.58,7.58,0,0,1-5.83,3.89c-5.93.93-9.78-3.49-7.71-9.13a112.8,112.8,0,0,1,4.85-11,5.44,5.44,0,0,0,0-5.11c-5.21-11.75-10.31-23.55-15.47-35.32a11.72,11.72,0,0,1-1.25-6,5.69,5.69,0,0,1,2.1-4.09c3.61-2.91,10.08-1.71,12.36,2.34a33.08,33.08,0,0,1,1.76,4C179.09,444.31,182.32,452.55,185.84,461.53Z"/><path class="cls-2" d="M301.32,458.82c0-4.86,0-9.72,0-14.58,0-3-.05-3-2.92-3.2-.49,0-1,0-1.46-.07-3.91-.31-5.76-2.3-5.65-6.09.1-3.57,2-5.48,5.72-5.71.48,0,1,0,1.46,0,2.7-.09,2.7-.09,3-2.81,1-10.24,6.08-16.15,16-18.74a41.15,41.15,0,0,1,10.47-1.3c4.84,0,7.45,4.92,4.93,9.09a4.53,4.53,0,0,1-3.52,2.3c-1.69.21-3.4.33-5.06.68-4.75,1-7.18,4.19-7,8.81.06,1.34.48,2,1.92,2,1.94-.06,3.89-.06,5.83,0,3.86.16,5.6,1.91,5.7,5.6.12,4.06-1.46,5.91-5.44,6.17-2.06.13-4.13.09-6.2.1-1.19,0-1.79.55-1.79,1.75s0,2.19,0,3.28q0,12.59,0,25.15c0,1,0,1.95-.05,2.92-.48,5.37-3.35,7.83-8.69,7.5-4.38-.28-7-2.75-7.16-7.15-.16-5.22,0-10.45,0-15.68Z"/><path class="cls-2" d="M346.09,452.79c0-3,0-6.08,0-9.11,0-2.52-.08-2.52-2.71-2.64-.85,0-1.7,0-2.55-.1-3.68-.37-5.27-2.26-5.16-6.11.1-3.52,1.85-5.31,5.34-5.67,1.63-.17,3.85.87,4.76-.7.75-1.3.3-3.31.33-5a21.08,21.08,0,0,1,.44-5.07c1.06-3.91,3.86-5.61,8.76-5.25,3.95.28,6.35,2.47,6.71,6.34.19,2,.08,4.13.1,6.19,0,3.47,0,3.48,3.68,3.49,2.19,0,4.38-.06,6.57,0,5,.19,7.61,5.1,5,9.42a4.77,4.77,0,0,1-4.27,2.33c-2.8.07-5.6.05-8.39.12-2.53.06-2.59.1-2.61,2.74,0,5.47-.09,10.93,0,16.4.12,6.2,2.92,8.77,9.17,8.54,1.45-.05,2.89-.38,4.34-.5a3.12,3.12,0,0,1,3.73,2.63c1.45,5.32-1,9.46-6.46,10.47a29.39,29.39,0,0,1-14.42-.78c-6.84-2.18-10.54-7-11.79-13.95C345.87,462,346.13,457.4,346.09,452.79Z"/><path class="cls-2" d="M459.18,435c3.47-4.61,8.27-6.56,13.87-6.9,3.46-.2,5.31,1.26,5.74,4.65a10.31,10.31,0,0,1-.36,5.39,5.52,5.52,0,0,1-4.39,3.43c-1.79.31-3.61.46-5.41.73-6.65,1-10.14,4.92-10.2,11.59-.05,6.44.05,12.87,0,19.31-.09,6.68-4.53,9.89-11,8.09-3.07-.85-5-2.75-5-5.91q-.18-20.4,0-40.8c0-3.47,2.29-5.61,5.63-6.14,4.55-.73,7.76.67,9.15,4.06a18.42,18.42,0,0,1,.66,2.45C458.23,435.7,458.7,435.35,459.18,435Z"/><path class="cls-3" d="M459.18,435a1.28,1.28,0,0,1-.07.34c-.26.52-.53,1.35-1.1,1.18s-.37-1-.23-1.57Z"/><path class="cls-2" d="M470.92,188.24c-.42,11.61-5.47,20.48-15.74,26.47Q387,254.48,318.87,294.38,272.45,321.53,226,348.71a31,31,0,0,1-12.92,4.62c-12.72,1.14-25.64-7.63-29.2-21.5-1.85-7.23-1.75-7.41,4.63-11.14L336.8,234c12.83-7.5,21.21-18.39,24.71-32.84,5.59-23.07-3.87-46.77-24.66-58.87-50.22-29.21-100.3-58.65-150.51-87.88-2.78-1.62-3.58-3.27-3.2-6.33,1.8-14.44,14.57-25.73,28.83-25.2a28.37,28.37,0,0,1,13.39,4.32q29.87,17.54,59.79,35,85,49.69,170,99.36C465.39,167.53,470.5,176.37,470.92,188.24Z"/></g></g></svg>